<mxfile host="app.diagrams.net" modified="2023-10-18T03:24:47.395Z" agent="Mozilla/5.0 (Windows NT 10.0; Win64; x64) AppleWebKit/537.36 (KHTML, like Gecko) Chrome/118.0.0.0 Safari/537.36" etag="JJG3cs5OzGnVk294bL8M" version="22.0.4" type="github">
  <diagram name="페이지-1" id="v8xk6Lk-CrxOMlh8pizm">
    <mxGraphModel dx="1647" dy="897" grid="1" gridSize="10" guides="1" tooltips="1" connect="1" arrows="1" fold="1" page="1" pageScale="1" pageWidth="827" pageHeight="1169" math="0" shadow="0">
      <root>
        <mxCell id="0" />
        <mxCell id="1" parent="0" />
        <mxCell id="eiipQO5Uz6Wxq5S8Th2W-2" value="서버&lt;br&gt;(톰캣)" style="whiteSpace=wrap;html=1;aspect=fixed;" vertex="1" parent="1">
          <mxGeometry x="270" y="150" width="80" height="80" as="geometry" />
        </mxCell>
        <mxCell id="eiipQO5Uz6Wxq5S8Th2W-3" value="기능처리&lt;br&gt;(eclipse)&lt;br&gt;(VScode)" style="whiteSpace=wrap;html=1;aspect=fixed;" vertex="1" parent="1">
          <mxGeometry x="400" y="150" width="80" height="80" as="geometry" />
        </mxCell>
        <mxCell id="eiipQO5Uz6Wxq5S8Th2W-4" value="DB&lt;br&gt;(mySQL)" style="whiteSpace=wrap;html=1;aspect=fixed;" vertex="1" parent="1">
          <mxGeometry x="530" y="150" width="80" height="80" as="geometry" />
        </mxCell>
        <mxCell id="eiipQO5Uz6Wxq5S8Th2W-5" value="유저&lt;span style=&quot;white-space: pre;&quot;&gt;&#x9;&lt;/span&gt;" style="whiteSpace=wrap;html=1;aspect=fixed;" vertex="1" parent="1">
          <mxGeometry x="140" y="150" width="80" height="80" as="geometry" />
        </mxCell>
        <mxCell id="eiipQO5Uz6Wxq5S8Th2W-7" value="" style="endArrow=classic;startArrow=classic;html=1;rounded=0;exitX=1;exitY=0.5;exitDx=0;exitDy=0;entryX=0;entryY=0.5;entryDx=0;entryDy=0;" edge="1" parent="1" source="eiipQO5Uz6Wxq5S8Th2W-5" target="eiipQO5Uz6Wxq5S8Th2W-2">
          <mxGeometry width="50" height="50" relative="1" as="geometry">
            <mxPoint x="440" y="410" as="sourcePoint" />
            <mxPoint x="490" y="360" as="targetPoint" />
          </mxGeometry>
        </mxCell>
        <mxCell id="eiipQO5Uz6Wxq5S8Th2W-8" value="" style="endArrow=classic;startArrow=classic;html=1;rounded=0;exitX=1;exitY=0.5;exitDx=0;exitDy=0;entryX=0;entryY=0.5;entryDx=0;entryDy=0;" edge="1" parent="1">
          <mxGeometry width="50" height="50" relative="1" as="geometry">
            <mxPoint x="480" y="189.5" as="sourcePoint" />
            <mxPoint x="530" y="189.5" as="targetPoint" />
          </mxGeometry>
        </mxCell>
        <mxCell id="eiipQO5Uz6Wxq5S8Th2W-9" value="" style="endArrow=classic;startArrow=classic;html=1;rounded=0;exitX=1;exitY=0.5;exitDx=0;exitDy=0;entryX=0;entryY=0.5;entryDx=0;entryDy=0;" edge="1" parent="1">
          <mxGeometry width="50" height="50" relative="1" as="geometry">
            <mxPoint x="350" y="189.5" as="sourcePoint" />
            <mxPoint x="400" y="189.5" as="targetPoint" />
          </mxGeometry>
        </mxCell>
        <mxCell id="eiipQO5Uz6Wxq5S8Th2W-12" value="크롤링&lt;br&gt;(Jupyter Notbook)" style="whiteSpace=wrap;html=1;aspect=fixed;" vertex="1" parent="1">
          <mxGeometry x="660" y="150" width="80" height="80" as="geometry" />
        </mxCell>
        <mxCell id="eiipQO5Uz6Wxq5S8Th2W-13" value="" style="endArrow=classic;html=1;rounded=0;exitX=0;exitY=0.5;exitDx=0;exitDy=0;entryX=1;entryY=0.5;entryDx=0;entryDy=0;" edge="1" parent="1" source="eiipQO5Uz6Wxq5S8Th2W-12" target="eiipQO5Uz6Wxq5S8Th2W-4">
          <mxGeometry width="50" height="50" relative="1" as="geometry">
            <mxPoint x="390" y="480" as="sourcePoint" />
            <mxPoint x="440" y="430" as="targetPoint" />
          </mxGeometry>
        </mxCell>
        <mxCell id="eiipQO5Uz6Wxq5S8Th2W-14" value="JSP&lt;br&gt;Servlet" style="whiteSpace=wrap;html=1;aspect=fixed;" vertex="1" parent="1">
          <mxGeometry x="270" y="270" width="80" height="80" as="geometry" />
        </mxCell>
        <mxCell id="eiipQO5Uz6Wxq5S8Th2W-15" value="JAVA&lt;br&gt;CSS&lt;br&gt;JS" style="whiteSpace=wrap;html=1;aspect=fixed;" vertex="1" parent="1">
          <mxGeometry x="400" y="270" width="80" height="80" as="geometry" />
        </mxCell>
        <mxCell id="eiipQO5Uz6Wxq5S8Th2W-17" value="파이썬" style="whiteSpace=wrap;html=1;aspect=fixed;" vertex="1" parent="1">
          <mxGeometry x="660" y="270" width="80" height="80" as="geometry" />
        </mxCell>
        <mxCell id="eiipQO5Uz6Wxq5S8Th2W-19" value="" style="endArrow=none;html=1;rounded=0;entryX=0.5;entryY=1;entryDx=0;entryDy=0;" edge="1" parent="1" source="eiipQO5Uz6Wxq5S8Th2W-14" target="eiipQO5Uz6Wxq5S8Th2W-2">
          <mxGeometry width="50" height="50" relative="1" as="geometry">
            <mxPoint x="390" y="480" as="sourcePoint" />
            <mxPoint x="440" y="430" as="targetPoint" />
          </mxGeometry>
        </mxCell>
        <mxCell id="eiipQO5Uz6Wxq5S8Th2W-24" value="" style="endArrow=none;html=1;rounded=0;exitX=0.5;exitY=0;exitDx=0;exitDy=0;entryX=0.5;entryY=1;entryDx=0;entryDy=0;" edge="1" parent="1" source="eiipQO5Uz6Wxq5S8Th2W-15" target="eiipQO5Uz6Wxq5S8Th2W-3">
          <mxGeometry width="50" height="50" relative="1" as="geometry">
            <mxPoint x="390" y="480" as="sourcePoint" />
            <mxPoint x="440" y="430" as="targetPoint" />
          </mxGeometry>
        </mxCell>
        <mxCell id="eiipQO5Uz6Wxq5S8Th2W-25" value="" style="endArrow=none;html=1;rounded=0;entryX=0.5;entryY=0;entryDx=0;entryDy=0;exitX=0.5;exitY=1;exitDx=0;exitDy=0;" edge="1" parent="1" source="eiipQO5Uz6Wxq5S8Th2W-12" target="eiipQO5Uz6Wxq5S8Th2W-17">
          <mxGeometry width="50" height="50" relative="1" as="geometry">
            <mxPoint x="490" y="490" as="sourcePoint" />
            <mxPoint x="540" y="440" as="targetPoint" />
          </mxGeometry>
        </mxCell>
      </root>
    </mxGraphModel>
  </diagram>
</mxfile>
